<mxfile host="app.diagrams.net" modified="2023-10-04T23:01:49.480Z" agent="Mozilla/5.0 (Windows NT 10.0; Win64; x64) AppleWebKit/537.36 (KHTML, like Gecko) Chrome/117.0.0.0 Safari/537.36" etag="3aDhu45OlWubUfU4OWdC" version="22.0.2" type="github">
  <diagram id="2f404044-711c-603c-8f00-f6bb4c023d3c" name="Page-1">
    <mxGraphModel dx="11560" dy="6720" grid="1" gridSize="100" guides="0" tooltips="1" connect="1" arrows="1" fold="1" page="0" pageScale="1" pageWidth="1169" pageHeight="827" background="#000018" math="0" shadow="0">
      <root>
        <mxCell id="0" />
        <mxCell id="1" parent="0" />
        <mxCell id="qv4uZhvuzrspPxyVLUgV-156" value="UI PACKAGE" style="fontStyle=0;verticalAlign=top;align=center;spacingTop=0;fillColor=#0050ef;rounded=0;strokeColor=#001DBC;strokeWidth=1;dashed=0;container=1;collapsible=0;expand=0;recursiveResize=0;labelPosition=center;verticalLabelPosition=middle;fontFamily=Georgia;fontSize=60;labelBackgroundColor=none;labelBorderColor=none;horizontal=1;html=1;whiteSpace=wrap;spacing=5;spacingBottom=0;aspect=fixed;fontColor=#ffffff;" vertex="1" parent="1">
          <mxGeometry x="-1200" y="-1600" width="400" height="400" as="geometry" />
        </mxCell>
        <mxCell id="qv4uZhvuzrspPxyVLUgV-223" style="edgeStyle=orthogonalEdgeStyle;shape=connector;rounded=0;orthogonalLoop=1;jettySize=auto;html=1;entryX=1;entryY=0.5;entryDx=0;entryDy=0;labelBackgroundColor=#190033;strokeWidth=20;align=center;verticalAlign=middle;fontFamily=Georgia;fontSize=30;fontColor=#FFFFFF;endArrow=classic;endFill=1;startSize=6;strokeColor=#FFFFFF;" edge="1" parent="1" source="qv4uZhvuzrspPxyVLUgV-157" target="qv4uZhvuzrspPxyVLUgV-155">
          <mxGeometry relative="1" as="geometry" />
        </mxCell>
        <mxCell id="qv4uZhvuzrspPxyVLUgV-228" style="edgeStyle=orthogonalEdgeStyle;shape=connector;rounded=0;orthogonalLoop=1;jettySize=auto;html=1;labelBackgroundColor=#190033;strokeColor=#FFFFFF;strokeWidth=20;align=center;verticalAlign=middle;fontFamily=Georgia;fontSize=30;fontColor=#FFFFFF;endArrow=classic;endFill=1;startSize=6;entryX=1;entryY=0.5;entryDx=0;entryDy=0;" edge="1" parent="1" source="qv4uZhvuzrspPxyVLUgV-157" target="qv4uZhvuzrspPxyVLUgV-156">
          <mxGeometry relative="1" as="geometry">
            <mxPoint x="-200" y="-1400" as="targetPoint" />
            <Array as="points">
              <mxPoint x="-200" y="-1400" />
            </Array>
          </mxGeometry>
        </mxCell>
        <mxCell id="qv4uZhvuzrspPxyVLUgV-230" style="edgeStyle=orthogonalEdgeStyle;shape=connector;rounded=0;orthogonalLoop=1;jettySize=auto;html=1;labelBackgroundColor=#190033;strokeColor=#FFFFFF;strokeWidth=20;align=center;verticalAlign=middle;fontFamily=Georgia;fontSize=30;fontColor=#FFFFFF;endArrow=classic;endFill=1;startSize=6;entryX=1;entryY=0.5;entryDx=0;entryDy=0;" edge="1" parent="1" source="qv4uZhvuzrspPxyVLUgV-157" target="qv4uZhvuzrspPxyVLUgV-154">
          <mxGeometry relative="1" as="geometry">
            <mxPoint x="-200" y="200" as="targetPoint" />
            <Array as="points">
              <mxPoint x="-200" y="200" />
            </Array>
          </mxGeometry>
        </mxCell>
        <mxCell id="qv4uZhvuzrspPxyVLUgV-157" value="ARTISTS PWA" style="fontStyle=0;verticalAlign=top;align=center;spacingTop=0;fillColor=#008a00;rounded=0;strokeColor=#005700;strokeWidth=1;dashed=0;container=1;collapsible=0;expand=0;recursiveResize=0;labelPosition=center;verticalLabelPosition=middle;fontFamily=Georgia;fontSize=60;labelBackgroundColor=none;labelBorderColor=none;horizontal=1;html=1;whiteSpace=wrap;spacing=5;spacingBottom=0;aspect=fixed;fontColor=#ffffff;" vertex="1" parent="1">
          <mxGeometry x="-400" y="-800" width="400" height="400" as="geometry" />
        </mxCell>
        <mxCell id="qv4uZhvuzrspPxyVLUgV-225" style="edgeStyle=orthogonalEdgeStyle;shape=connector;rounded=0;orthogonalLoop=1;jettySize=auto;html=1;labelBackgroundColor=#190033;strokeColor=#FFFFFF;strokeWidth=20;align=center;verticalAlign=middle;fontFamily=Georgia;fontSize=30;fontColor=#FFFFFF;endArrow=classic;endFill=1;startSize=6;" edge="1" parent="1" source="qv4uZhvuzrspPxyVLUgV-154" target="qv4uZhvuzrspPxyVLUgV-155">
          <mxGeometry relative="1" as="geometry" />
        </mxCell>
        <mxCell id="qv4uZhvuzrspPxyVLUgV-154" value="CORE PACKAGE" style="fontStyle=0;verticalAlign=top;align=center;spacingTop=0;fillColor=#fa6800;rounded=0;strokeColor=#C73500;strokeWidth=1;dashed=0;container=1;collapsible=0;expand=0;recursiveResize=0;labelPosition=center;verticalLabelPosition=middle;fontFamily=Georgia;fontSize=60;labelBackgroundColor=none;labelBorderColor=none;horizontal=1;html=1;whiteSpace=wrap;spacing=5;spacingBottom=0;aspect=fixed;fontColor=#000000;" vertex="1" parent="1">
          <mxGeometry x="-1200" width="400" height="400" as="geometry" />
        </mxCell>
        <mxCell id="qv4uZhvuzrspPxyVLUgV-224" style="edgeStyle=orthogonalEdgeStyle;shape=connector;rounded=0;orthogonalLoop=1;jettySize=auto;html=1;entryX=0.5;entryY=0;entryDx=0;entryDy=0;labelBackgroundColor=#190033;strokeColor=#FFFFFF;strokeWidth=20;align=center;verticalAlign=middle;fontFamily=Georgia;fontSize=30;fontColor=#FFFFFF;endArrow=classic;endFill=1;startSize=6;" edge="1" parent="1" source="qv4uZhvuzrspPxyVLUgV-156" target="qv4uZhvuzrspPxyVLUgV-155">
          <mxGeometry relative="1" as="geometry" />
        </mxCell>
        <mxCell id="qv4uZhvuzrspPxyVLUgV-222" style="edgeStyle=orthogonalEdgeStyle;rounded=0;orthogonalLoop=1;jettySize=auto;html=1;labelBackgroundColor=#190033;strokeColor=#FFFFFF;strokeWidth=20;align=center;verticalAlign=middle;fontFamily=Georgia;fontSize=30;fontColor=#FFFFFF;endArrow=classic;endFill=1;startSize=6;" edge="1" parent="1" source="qv4uZhvuzrspPxyVLUgV-143" target="qv4uZhvuzrspPxyVLUgV-155">
          <mxGeometry relative="1" as="geometry" />
        </mxCell>
        <mxCell id="qv4uZhvuzrspPxyVLUgV-229" style="edgeStyle=orthogonalEdgeStyle;shape=connector;rounded=0;orthogonalLoop=1;jettySize=auto;html=1;labelBackgroundColor=#190033;strokeColor=#FFFFFF;strokeWidth=20;align=center;verticalAlign=middle;fontFamily=Georgia;fontSize=30;fontColor=#FFFFFF;endArrow=classic;endFill=1;startSize=6;entryX=0;entryY=0.5;entryDx=0;entryDy=0;" edge="1" parent="1" source="qv4uZhvuzrspPxyVLUgV-143" target="qv4uZhvuzrspPxyVLUgV-154">
          <mxGeometry relative="1" as="geometry">
            <mxPoint x="-1800" y="200" as="targetPoint" />
            <Array as="points">
              <mxPoint x="-1800" y="200" />
            </Array>
          </mxGeometry>
        </mxCell>
        <mxCell id="qv4uZhvuzrspPxyVLUgV-143" value="CIVILIANS PWA" style="fontStyle=0;verticalAlign=top;align=center;spacingTop=0;fillColor=#008a00;rounded=0;strokeColor=#005700;strokeWidth=1;dashed=0;container=1;collapsible=0;expand=0;recursiveResize=0;labelPosition=center;verticalLabelPosition=middle;fontFamily=Georgia;fontSize=60;labelBackgroundColor=none;labelBorderColor=none;horizontal=1;html=1;whiteSpace=wrap;spacing=5;spacingBottom=0;fontColor=#ffffff;" vertex="1" parent="1">
          <mxGeometry x="-2000" y="-800" width="400" height="400" as="geometry" />
        </mxCell>
        <mxCell id="qv4uZhvuzrspPxyVLUgV-149" style="edgeStyle=orthogonalEdgeStyle;shape=connector;rounded=0;orthogonalLoop=1;jettySize=auto;html=1;exitX=0.5;exitY=1;exitDx=0;exitDy=0;labelBackgroundColor=default;strokeColor=#FFFFFF;align=center;verticalAlign=middle;fontFamily=Georgia;fontSize=26;fontColor=#FFFFFF;endArrow=classic;" edge="1" parent="1" source="qv4uZhvuzrspPxyVLUgV-143" target="qv4uZhvuzrspPxyVLUgV-143">
          <mxGeometry relative="1" as="geometry" />
        </mxCell>
        <mxCell id="qv4uZhvuzrspPxyVLUgV-155" value="CONFIG PACKAGE" style="fontStyle=0;verticalAlign=top;align=center;spacingTop=0;fillColor=#FF33FF;rounded=0;strokeColor=#82b366;strokeWidth=1;dashed=0;container=1;collapsible=0;expand=0;recursiveResize=0;labelPosition=center;verticalLabelPosition=middle;fontFamily=Georgia;fontSize=60;labelBackgroundColor=none;labelBorderColor=none;horizontal=1;html=1;whiteSpace=wrap;spacing=5;spacingBottom=0;fontColor=#FFFFFF;aspect=fixed;" vertex="1" parent="1">
          <mxGeometry x="-1200" y="-800" width="400" height="400" as="geometry" />
        </mxCell>
        <mxCell id="qv4uZhvuzrspPxyVLUgV-227" style="edgeStyle=orthogonalEdgeStyle;shape=connector;rounded=0;orthogonalLoop=1;jettySize=auto;html=1;entryX=0;entryY=0.5;entryDx=0;entryDy=0;labelBackgroundColor=#190033;strokeColor=#FFFFFF;strokeWidth=20;align=center;verticalAlign=middle;fontFamily=Georgia;fontSize=30;fontColor=#FFFFFF;endArrow=classic;endFill=1;startSize=6;" edge="1" parent="1" source="qv4uZhvuzrspPxyVLUgV-143" target="qv4uZhvuzrspPxyVLUgV-156">
          <mxGeometry relative="1" as="geometry">
            <Array as="points">
              <mxPoint x="-1800" y="-1400" />
            </Array>
          </mxGeometry>
        </mxCell>
      </root>
    </mxGraphModel>
  </diagram>
</mxfile>
